<?xml version="1.0" encoding="UTF-8"?>
<svg width="10px" height="19px" viewBox="0 0 10 19" version="1.1" xmlns="http://www.w3.org/2000/svg" xmlns:xlink="http://www.w3.org/1999/xlink">
    <!-- Generator: Sketch 51.2 (57519) - http://www.bohemiancoding.com/sketch -->
    <title>Facebook</title>
    <desc>Created with Sketch.</desc>
    <defs>
        <polygon id="path-1" points="0 0 10 0 10 19 0 19"></polygon>
    </defs>
    <g id="Page-1" stroke="none" stroke-width="1" fill="none" fill-rule="evenodd">
        <g id="Desktop-FullHd" transform="translate(-525.000000, -148.000000)">
            <g id="Header">
                <g id="Social" transform="translate(347.000000, 148.000000)">
                    <g id="Facebook" transform="translate(178.000000, 0.000000)">
                        <mask id="mask-2" fill="white">
                            <use xlink:href="#path-1"></use>
                        </mask>
                        <g id="Clip-2"></g>
                        <path d="M2.90530303,19 L2.90530303,10.5019531 L0,10.5019531 L0,7.125 L2.90530303,7.125 L2.90530303,4.46425781 C2.90530303,1.5734375 4.70833333,0 7.34090909,0 C8.60223485,0 9.68560606,0.0927734375 10,0.13359375 L10,3.15429688 L8.17424242,3.15429688 C6.74242424,3.15429688 6.46590909,3.82226563 6.46590909,4.79824219 L6.46590909,7.125 L9.6969697,7.125 L9.25378788,10.5019531 L6.46590909,10.5019531 L6.46590909,19" id="Fill-1" fill="#1C3142" mask="url(#mask-2)"></path>
                    </g>
                </g>
            </g>
        </g>
    </g>
</svg>