<?xml version="1.0" encoding="UTF-8"?>
<svg width="55px" height="94px" viewBox="0 0 55 94" version="1.1" xmlns="http://www.w3.org/2000/svg" xmlns:xlink="http://www.w3.org/1999/xlink">
    <!-- Generator: Sketch 51.2 (57519) - http://www.bohemiancoding.com/sketch -->
    <title>finlandsvg</title>
    <desc>Created with Sketch.</desc>
    <defs></defs>
    <g id="Page-1" stroke="none" stroke-width="1" fill="none" fill-rule="evenodd" stroke-linecap="round" stroke-linejoin="round">
        <g id="Desktop-FullHd" transform="translate(-182.000000, -655.000000)" stroke="#FFFFFF" stroke-width="2">
            <g id="InfoBoxes" transform="translate(145.000000, 636.000000)">
                <g id="FI">
                    <g id="finlandsvg" transform="translate(38.000000, 20.000000)">
                        <path d="M15.4853987,91.4384427 C15.8194649,91.0024134 15.8459457,90.9202051 15.6038563,91.0707271 C15.1688417,91.3411796 14.7419555,91.1449502 14.8092881,90.7054718 C14.8391171,90.5108053 14.9580132,90.3716628 15.0735044,90.3962776 C15.3071297,90.4460813 15.7233979,90.1537061 15.7233979,89.9398214 C15.7233979,89.8640354 15.6425129,89.8020403 15.5436541,89.8020403 C15.4447953,89.8020403 15.2781455,89.6852783 15.173323,89.5425582 C14.9461213,89.2332298 14.6194783,89.3864807 14.6194783,89.8024066 C14.6194783,89.965114 14.4870849,90.1905491 14.3252705,90.3033796 C14.0602294,90.4881927 13.988667,90.596817 13.988667,90.8143524 C13.988667,90.853033 13.7758532,90.8108299 13.5157456,90.720557 C13.255638,90.6302901 13.0859173,90.4870268 13.1385846,90.4021872 C13.1912535,90.3173537 13.08472,90.1436026 12.9018441,90.0160838 C12.5668534,89.7825048 12.432924,89.0170498 12.7270444,89.0170498 C12.8137797,89.0170498 12.8847473,88.9486202 12.8847473,88.8649832 C12.8847473,88.7813462 12.7782967,88.7535751 12.6481923,88.8032812 C12.5027126,88.8588539 12.4116389,88.802982 12.4116389,88.6581497 C12.4116389,88.5286284 12.2971964,88.3789366 12.1573232,88.3255005 C11.9513654,88.2468208 11.9400435,88.1839222 12.0977817,87.9947073 C12.2592697,87.8009992 12.2382358,87.7610673 11.9747141,87.7610673 C11.6041515,87.7610673 11.3886042,87.3358987 11.6190346,87.0594816 C11.7065164,86.9545509 11.7330662,86.8238697 11.6780365,86.7690845 C11.6230053,86.7142993 11.6902888,86.626572 11.8275542,86.5741371 C12.0282966,86.4974475 11.9746452,86.389214 11.553327,86.020949 C10.9950009,85.5329184 10.6824929,85.4650565 10.1934312,85.725619 C9.93759009,85.861935 9.88839367,85.8358184 9.88839367,85.5636992 C9.88839367,85.3852533 9.99484273,85.1985843 10.1249471,85.1488844 C10.255053,85.0991784 10.3592593,84.9424355 10.3565196,84.800564 C10.3527789,84.6069964 10.2565984,84.649987 9.97114902,84.9728256 C9.73560892,85.2392245 9.49730465,85.3673355 9.34532176,85.3092719 C9.21032842,85.2577039 9.09988723,85.2760552 9.09989175,85.3500586 C9.09991013,85.5536993 8.16811943,85.4836762 7.9502327,85.2636623 C7.80068273,85.1126457 7.817634,85.0281297 8.02859583,84.8729252 C8.26737221,84.6972571 8.27117275,84.6483814 8.06222839,84.4403757 C7.80100163,84.1803198 7.91311688,83.679127 8.23251469,83.679127 C8.54962668,83.679127 8.59364128,83.3716178 8.44599082,82.1876485 C8.28907599,80.9293949 8.3849913,80.248572 8.76670089,79.9111794 C8.91323832,79.7816581 9.23964996,79.2319681 9.49205993,78.6896589 C9.8976456,77.8182354 9.93192983,77.6325613 9.78704345,77.0921692 C9.66100474,76.6220686 9.67471509,76.3600225 9.84635354,75.9587239 C10.1323886,75.2899398 9.98529311,73.7281026 9.56226557,72.9423549 C9.1899353,72.2507691 9.17011115,71.2721071 9.51498243,70.6081825 C9.69296013,70.2655458 9.71729004,70.0943709 9.59383304,70.053401 C9.49563039,70.020813 9.41528496,69.791599 9.41528496,69.5440399 C9.41528496,69.2964806 9.31966252,69.0374382 9.20279155,68.9683858 C9.03844442,68.8712815 9.01666399,68.5959939 9.10666163,67.7534219 C9.18172868,67.0506153 9.16299907,66.5683293 9.05388088,66.3943829 C8.79886457,65.9878646 9.29855043,64.6029103 9.87421552,64.1206854 C10.5104539,63.5877167 11.1617041,62.3808784 11.2231651,61.6209362 C11.2997423,60.674105 11.3701794,60.4840173 11.7734746,60.1358068 C12.0536808,59.8938703 12.1949583,59.8585779 12.3547599,59.9906083 C12.6123824,60.2034612 12.4649297,60.4974053 12.1591318,60.3805823 C12.0378012,60.3342279 11.93853,60.3726032 11.93853,60.4658492 C11.93853,60.5752671 12.1385104,60.5980444 12.5024456,60.5300787 C12.8545009,60.464323 13.1507401,60.494475 13.2909582,60.6103274 C13.4755787,60.7628641 13.5155582,60.7226085 13.5155582,60.384172 C13.5155582,60.1577296 13.4445922,59.9724585 13.3578539,59.9724585 C13.2711186,59.9724585 13.200151,59.8664838 13.200151,59.7369625 C13.200151,59.6061288 13.3403323,59.5014666 13.5155582,59.5014666 C13.7001144,59.5014666 13.8309639,59.6061288 13.8309639,59.7537571 C13.8309639,59.9110739 13.9181177,59.9727577 14.0624674,59.9176123 C14.378934,59.7967172 14.5320223,60.091516 14.2983387,60.371828 C14.0463548,60.6740931 14.2156324,60.6660651 14.5218364,60.3612299 C14.7370939,60.1469362 14.7297244,60.0673286 14.4511111,59.5972279 C14.1563574,59.0998934 14.1748509,58.4614383 14.4785945,58.6483272 C14.5564057,58.6961957 14.6891455,58.5544952 14.7735735,58.3334251 C14.858,58.1123611 14.9979758,57.9314855 15.0846328,57.9314855 C15.1712884,57.9314855 15.3511947,57.7216301 15.484425,57.4651454 C15.7982761,56.8609389 16.2914111,56.5851689 16.6008424,56.8408293 C16.7765864,56.986034 16.8803051,56.9841659 17.0638724,56.8325023 C17.3961205,56.55799 17.3583761,56.309802 16.9986217,56.403457 C16.7311399,56.4730893 16.5255484,56.1855675 16.5140642,55.7258086 C16.5090925,55.5267772 17.6356572,55.240458 17.8210459,55.3936296 C17.9505877,55.5006543 18.1081756,55.4798061 18.3166553,55.3280448 C18.4847785,55.205654 18.7506995,55.1055278 18.9075944,55.1055278 C19.1088534,55.1055278 19.1928567,54.9866413 19.1928567,54.7018178 C19.1928567,54.3067951 19.5081059,53.8495453 19.7804506,53.8495453 C19.959155,53.8495453 21.4995948,51.924681 21.6217932,51.5486811 C21.673559,51.3893985 22.1417539,50.9102504 22.6622268,50.4839035 C23.347686,49.9224067 23.6085387,49.6030968 23.6085387,49.325532 C23.6085387,48.8973536 24.3922313,47.44527 24.8257359,47.0702163 C25.1419448,46.7966381 26.1076288,46.6096943 26.5754589,46.7314867 C26.7453297,46.7757105 26.9461073,46.9497608 27.0216328,47.1182556 C27.1452997,47.394172 27.1901944,47.4017848 27.4733042,47.1948597 C27.7813696,46.9696932 27.7794133,46.9619583 27.3754879,46.808396 C26.9525524,46.6476055 26.6924387,46.2396709 26.8505048,45.9850606 C26.9032089,45.900166 27.0598093,45.9059382 27.2349049,45.9992301 C27.3974109,46.0858096 27.5586628,46.1566507 27.5932367,46.1566507 C27.7581526,46.1566507 27.5802454,45.5069352 27.3442408,45.2473218 C27.0745913,44.9506916 26.9810216,44.107558 27.1942049,43.8953278 C27.2581157,43.8317027 27.3216433,43.5549926 27.3353796,43.2804223 C27.349116,43.005849 27.4068761,42.5324089 27.4637378,42.2283368 C27.5568936,41.7301812 27.5000104,41.6037581 26.8888807,40.950743 C26.5158437,40.5521428 26.0332195,40.1726784 25.8163782,40.1074874 C25.599537,40.0422994 25.1432234,39.7517648 24.8023473,39.461856 C24.4614742,39.1719471 24.1243817,38.9259203 24.0532593,38.9151269 C23.9821369,38.9043335 23.6578302,38.8422162 23.5508829,38.8314228 C23.4439325,38.8206294 23.4937482,38.6089791 23.4432825,38.3067598 C23.3928199,38.0045375 23.2649277,37.5983061 23.1590811,37.4040212 C23.0532315,37.2097363 22.3980995,35.740684 22.4913228,35.5905162 C22.5449313,35.5041656 22.4534527,32.6616149 22.5325656,32.6508215 C22.6116784,32.6400281 23.0004232,29.9858741 23.1589953,29.9858741 C23.292888,29.9858741 23.1472336,29.483265 22.6068799,28.0806827 C22.3861508,27.5077454 22.2491889,26.9955393 22.3025185,26.9424482 C22.3558481,26.8893571 22.3125019,26.8459178 22.2061893,26.8459178 C22.0998767,26.8459178 21.9526678,25.8739528 21.873138,25.8250222 C21.6992995,25.7180646 22.1823439,25.1189433 22.4424239,25.1189433 C22.6498245,25.1189433 22.8390826,24.5628401 22.6845946,24.4073578 C22.6289746,24.3513791 22.5834699,24.153007 22.5834699,23.966521 C22.5834699,23.6846341 22.4991722,23.6320985 22.0835249,23.6549429 C21.6259756,23.6800889 21.5898963,23.647733 21.658069,23.2734486 C21.6990419,23.0485141 21.7797553,22.7888764 21.8374387,22.6964789 C21.8951192,22.6040784 22.0515664,20.224536 22.0593176,20.0950131 C22.0670626,19.9654889 22.1751322,19.7428009 22.2994707,19.6001496 C22.5748815,19.2841745 22.5187526,18.8688179 22.1497874,18.4925112 C21.9979977,18.3377036 21.8738063,18.0697403 21.8738063,17.8970437 C21.8738063,17.7243457 21.7715471,17.5830481 21.6465617,17.5830481 C21.5215731,17.5830481 21.383345,17.5251112 21.3393825,17.4542991 C21.2508259,17.3116524 21.0699691,16.527495 21.0472735,16.187778 C21.0392708,16.0679925 20.9026217,15.9361163 20.743602,15.894719 C20.5845853,15.8533218 20.4544824,15.7602528 20.4544824,15.6878992 C20.4544824,15.4222863 19.6416676,14.7570888 19.3171094,14.7570888 C19.133122,14.7570888 19.0341866,14.7057193 19.0972511,14.6429351 C19.1603188,14.5801509 18.87054,14.4136615 18.4533014,14.2729562 C17.9471629,14.1022728 17.7084968,13.9382299 17.7361903,13.7800615 C17.7909732,13.4671662 17.3674521,13.1279086 17.0658778,13.243117 C16.8930083,13.3091566 16.8273161,13.2285278 16.8273161,12.9503053 C16.8273161,12.7140049 16.6757041,12.4674622 16.4330598,12.3091839 C16.2162186,12.1677398 15.5689145,11.0833396 15.4764777,10.9106416 C15.3840379,10.7379435 15.0902042,10.4906712 14.823512,10.3611485 C14.4014396,10.1561632 14.3488658,10.0620151 14.4177239,9.63446559 C14.4903748,9.18336486 14.4443181,9.12021599 13.853376,8.86065764 L13.2099199,8.57803502 L13.7704657,8.19883923 L14.3310085,7.81964194 L14.7111743,8.17519502 C15.1496061,8.58523884 15.3712167,8.48244167 15.143598,7.97461141 C14.9048645,7.44198079 15.2059298,6.86108864 15.8931965,6.52829306 C16.4491662,6.25907214 16.5118122,6.25667981 16.7516894,6.4954839 C16.8940047,6.63716459 17.0713508,6.71561309 17.1457877,6.66981352 C17.3175412,6.564141 18.8737165,9.5431809 18.8758566,9.98173761 C18.8767367,10.1616318 18.926816,10.3579603 18.9871518,10.4180263 C19.1042143,10.5345656 19.1707068,10.8202437 19.2329865,11.4742493 C19.260125,11.7591964 19.3469216,11.8613327 19.5230688,11.8155948 C19.6613184,11.7796966 20.0423029,11.9312977 20.3697064,12.1524853 C20.6971068,12.373673 21.0329698,12.5128125 21.1160655,12.4616856 C21.1991642,12.4105572 21.4112682,12.5227268 21.5874124,12.7109497 L21.9076718,13.0531727 L22.2769711,12.7077842 C22.4800882,12.51782 22.745025,12.4001224 22.8657271,12.4462326 C23.1687149,12.5619782 23.3628082,12.409147 23.6694355,11.8133788 C23.9136175,11.3389362 24.3970512,11.1042384 24.3970512,11.4601349 C24.3970512,11.5464823 24.5389833,11.6171312 24.7124569,11.6171312 C24.8859304,11.6171312 25.0194582,11.6701186 25.0091897,11.7348807 C24.9543178,12.0808446 25.0851137,12.2124964 25.6515665,12.3814522 C25.9946043,12.4837701 26.4940526,12.750752 26.7614545,12.9747509 C27.2298059,13.3670814 27.2589895,13.3717943 27.5570775,13.1032329 C27.7272672,12.9499026 27.8665133,12.702728 27.8665133,12.5539595 C27.8665133,11.6087416 28.7105998,10.7528398 29.4523291,10.9459373 C29.6984397,11.0100096 29.7734563,10.9825284 29.6954503,10.8568731 C29.6333975,10.7569239 29.6459565,10.6751444 29.7233584,10.6751444 C29.9069932,10.6751444 29.93526,10.4014258 29.9207479,8.76364067 C29.9141097,8.01453307 30.1529352,6.71032571 30.2936377,6.65657524 C30.4322461,6.60362376 30.5058091,6.49612584 30.4571157,6.41768954 C30.4084221,6.33925474 30.493983,5.86977609 30.6472476,5.37440582 C30.8005152,4.87903636 30.9061778,4.24412289 30.8820565,3.96348891 C30.8418991,3.49626447 31.0524148,3.3096961 31.4135061,3.49249622 C31.4904205,3.53143086 31.8824553,2.90196531 32.3903172,1.92410757 C32.7294057,1.27121376 33.0215669,1.18909084 33.9222331,1.49350785 C34.6855388,1.75149874 34.9631419,1.70642793 34.9631419,1.32450862 C34.9631419,1.2000811 35.0592289,1.09827876 35.1766655,1.09827876 C35.4236654,1.09827876 36.1374007,0.475660941 36.26896,0.145434738 C36.3463926,-0.0489287777 36.3798044,-0.0486678191 36.5168705,0.147364271 C36.6425396,0.327103504 36.7554384,0.337578055 37.0630682,0.198038642 C37.4093009,0.0409905003 37.4423142,0.0546543665 37.3711581,0.325549056 C37.3273213,0.492423802 37.6949802,1.31185778 37.9632193,1.57289816 C38.2314614,1.83394004 39.3236241,2.76163922 39.93078,3.10323117 C40.9061959,3.65201152 41.0848665,3.82732786 41.4656763,4.60928583 C41.8947686,5.49039325 41.8953788,5.49649282 41.6053824,6.00448261 C40.8775765,7.27941241 40.5991915,7.69218584 40.4671631,7.69218584 C40.3889916,7.69218584 40.3250379,8.00254908 40.3250379,8.3818792 C40.3250379,8.88239432 40.3975585,9.09927809 40.5894382,9.17258094 C40.8064081,9.25546694 40.7155244,9.41338358 40.0828335,10.0528658 C39.6587789,10.4814669 39.3801241,10.8396283 39.4635969,10.848778 C39.5470759,10.8579292 39.824912,10.8511024 40.0810122,10.8336089 C40.4937436,10.8054165 40.522547,10.8307167 40.3345184,11.0562632 C40.2178484,11.1962177 39.8585017,12.5591182 39.9137384,12.5591182 C39.9689751,12.5591182 39.803541,12.9745114 39.5461009,13.482215 C39.2886608,13.9899187 39.1123694,14.4394977 39.154345,14.4812826 C39.2292603,14.5558615 39.3610986,15.2376138 39.4505657,16.0130702 C39.475472,16.2289435 39.5620509,16.6753831 39.5488604,16.8132741 C39.5232918,17.0805582 39.8605652,17.4293807 40.198921,17.4855975 C40.3116511,17.5043258 40.5813037,17.6195738 40.7981448,17.7417005 C41.014986,17.8638303 41.2456248,17.9487431 41.3106794,17.9303979 C41.3757308,17.9120527 41.7443617,18.1221035 41.7443617,18.2279409 C41.7443617,18.3337767 42.2059952,18.7748287 42.5317582,19.4454489 C42.9214414,20.2476721 43.3496354,20.8569915 43.7835323,21.2267278 C44.4370147,21.783585 44.4421475,21.7962221 44.3479737,22.6162089 C44.2839341,23.1738322 44.1114019,23.6273001 43.818977,24.0065874 C43.2329069,24.7667434 43.0263221,25.107866 42.0994402,26.8459178 C41.2124582,28.5091542 41.1670884,29.0321474 41.8338503,29.9073774 C42.0311969,30.166423 42.8437266,31.3992314 42.797765,31.5742188 C42.7500557,31.7558299 43.4728025,33.1258304 43.4053717,33.1258304 C43.3379409,33.1258304 43.3723493,33.2332855 43.4818353,33.3646139 C43.6598805,33.5781872 43.7771117,34.0242742 43.8292485,34.6865993 C43.8390479,34.8110565 44.0136958,35.0583258 44.2173556,35.2360909 C44.4812837,35.4664557 44.6941665,35.9877214 44.9584747,37.0507773 C45.4297972,38.9464511 45.5758624,40.0337343 45.3592021,40.0337343 C45.2690021,40.0337343 45.228069,39.98075 45.2682355,39.9159863 C45.308402,39.8512257 45.1711244,39.7880798 44.9631781,39.7756624 C44.755238,39.763245 44.6197019,39.8088271 44.6620024,39.8769607 C44.7042969,39.9450882 44.6248713,40.0443964 44.4854903,40.0976432 C44.2803894,40.1759963 44.2691367,41.8450537 44.2905016,42.2055594 C44.3118664,42.5660682 44.2444909,42.9455081 44.1407754,43.0487601 C43.8303338,43.3578107 43.919154,43.7751713 44.3070343,43.8300114 C44.5659891,43.8666254 44.6660742,43.9905149 44.6774559,44.2885249 C44.6860288,44.5131145 44.74458,44.7798736 44.8075588,44.8813276 C44.8803491,44.998575 44.7453773,45.1271103 44.4371371,45.2340832 C44.170425,45.3266454 43.9429719,45.483776 43.9316884,45.5832673 C43.8476514,46.3243943 43.8681456,46.7337574 43.9977211,46.9023926 C44.0806666,47.0103271 44.09566,47.0986342 44.0310501,47.0986342 C43.9664403,47.0986342 43.9944771,47.1956714 44.0933481,47.314271 C44.1922131,47.4328706 44.6089581,47.5741987 45.019448,47.628343 L45.7657857,47.7267842 L45.7364243,48.4724411 C45.7202718,48.8825612 45.7025311,49.310587 45.6969998,49.4236189 C45.6914623,49.5366509 45.6230504,49.5898244 45.5449678,49.541785 C45.4668422,49.4937151 45.4352977,49.683687 45.4748143,49.9642614 C45.5143124,50.2446711 45.5673875,50.7213588 45.5927568,51.0235811 C45.6245405,51.4022 45.7462666,51.6273116 45.9842244,51.7474802 C46.1741601,51.8434062 46.5043231,52.0853307 46.7179111,52.2850947 C46.9314991,52.4848527 47.1062573,52.5920056 47.1062573,52.5232036 C47.1062573,52.4544076 47.2120211,52.4854998 47.3412838,52.5922987 C47.4900167,52.7151839 47.5416445,52.9240076 47.4818913,53.1610176 C47.4227698,53.3955245 47.4563012,53.5355462 47.5715762,53.5355462 C47.6728328,53.5355462 47.7118219,53.6061981 47.6582195,53.6925456 C47.604611,53.778893 47.6309492,53.8495449 47.7167523,53.8495449 C47.814213,53.8495449 47.8231171,54.0218553 47.7404721,54.3087177 C47.6677185,54.5612646 47.649015,54.8085369 47.6989135,54.8582123 C47.748812,54.9078878 47.7026542,54.948528 47.5963447,54.948528 C47.4900289,54.948528 47.4423136,55.0117746 47.4902988,55.0890746 C47.5382902,55.1663747 47.4670145,55.2718489 47.3319076,55.3234595 C47.1968069,55.3750763 47.130437,55.4884502 47.1844196,55.5754082 C47.2384022,55.6623662 47.2225196,55.7335125 47.1491221,55.7335125 C47.0757246,55.7335125 47.0052216,55.8716783 46.9924419,56.0405394 C46.9796684,56.2094005 46.7339226,56.557385 46.4463483,56.8138391 L45.9234839,57.2801119 L46.3866748,57.7627947 C46.6414289,58.0282718 46.7915293,58.2454837 46.7202351,58.2454837 C46.648941,58.2454837 46.7953436,58.4042534 47.0455597,58.5983033 C47.9079083,59.2670691 48.0245569,59.3912181 47.9564883,59.567808 C47.9174378,59.6691124 48.2103717,59.8359407 48.6405709,59.9573974 C49.0543785,60.0742266 49.4816526,60.2802115 49.5900778,60.4151417 C49.6984969,60.5500658 49.7872067,60.5958891 49.7872067,60.5169651 C49.7872067,60.4380411 50.0001018,60.6055286 50.2603136,60.8891433 C50.5205255,61.172764 50.7356772,61.3474675 50.7384367,61.2773774 C50.7411963,61.2072872 50.8507008,61.2912355 50.9817786,61.4639366 C51.1128565,61.6366316 51.2658267,61.7583263 51.3217104,61.7343647 C51.377594,61.710403 51.4380463,61.7810548 51.4560446,61.891364 C51.5434299,62.426848 51.6227082,62.571839 51.8869,62.6793399 C52.0442609,62.7433741 52.1287824,62.8670102 52.0747201,62.9540903 C52.0206577,63.0411642 52.0870644,63.1124144 52.2222939,63.1124144 C52.3575172,63.1124144 52.46815,63.1961734 52.46815,63.2985402 C52.46815,63.400913 52.6071815,63.6319951 52.7771013,63.8120648 C53.0841947,64.1374857 53.0838205,64.1455686 52.7144415,65.1586439 C52.5100581,65.7192006 52.3204903,66.3888943 52.2931771,66.6468501 C52.2658638,66.9048059 52.1815018,67.2010761 52.1057065,67.3052254 C52.0299051,67.4093808 52.0106436,67.5634559 52.0628908,67.647624 C52.1151381,67.731786 51.9806444,67.9910422 51.7640148,68.2237421 C51.5473852,68.4564481 51.40262,68.6991601 51.4423206,68.7631026 C51.5154237,68.8808658 49.7872067,70.8885918 49.7872067,70.9770332 C49.7872067,71.0654747 48.6832823,72.16726 48.6832823,72.2967874 C48.6832823,72.4263086 47.4915189,74.0567587 47.2877794,74.2348077 C47.0840399,74.4128566 46.1591173,75.852407 46.0040069,76.206295 C45.8488966,76.5601769 45.3154355,77.3089411 44.8185414,77.870206 C44.3216411,78.4314769 43.8347304,79.0747305 43.7365155,79.299671 C43.5493271,79.7283866 42.6799264,80.5391704 42.4074101,80.5391704 C42.1967074,80.5391704 41.5919951,81.5723368 41.4818773,82.12047 C41.4196835,82.4300488 41.313883,82.5400527 41.1149849,82.5019155 C40.8015814,82.4418312 40.3382494,82.8955097 38.9919153,84.5807511 C38.4922708,85.2061723 38.0319221,85.6861628 37.9689159,85.6473968 C37.9059095,85.6086308 37.8478121,85.6621157 37.8398095,85.7662527 C37.8124716,86.1220211 37.625041,86.8903758 37.5465291,86.9685367 C37.4118025,87.102661 35.3652885,86.9626394 35.207578,86.8085093 C34.9803548,86.5864319 33.7639856,86.6334761 33.5651151,86.8720307 C33.4688534,86.9875046 32.9988831,87.1754069 32.5207354,87.2895988 C32.0312767,87.4064951 31.6513808,87.5845503 31.6513808,87.6970632 C31.6513808,88.0391139 30.9907879,88.1476343 30.7666003,87.8424083 C30.6079608,87.6264297 30.4771956,87.6012226 30.1237728,87.7185035 C29.8797502,87.7994787 29.6800978,87.9658185 29.6800978,88.0881483 C29.6800978,88.4112616 29.4077318,88.5549217 29.1690381,88.3577095 C29.0556151,88.2639933 28.6487002,88.79137 28.6088433,88.8993044 C28.5536649,89.0487337 27.5449384,88.6214222 27.481236,88.7547407 C27.4163655,88.8905011 25.651836,88.6780511 25.1946179,89.1272547 C24.9300459,89.3871824 24.6584187,89.4945551 24.3272531,89.4701172 C23.517026,89.4103199 22.8381651,89.7664972 22.6932221,90.3274446 C22.5875809,90.7362826 22.4776012,90.8310854 22.0618497,90.8717073 C21.6424157,90.9127016 21.5584002,90.8668478 21.5584002,90.5969692 C21.5584002,90.4187981 21.5401903,90.2730318 21.5179331,90.2730318 C21.4956789,90.2730318 21.2295525,90.3485248 20.9265494,90.4408001 C19.7258482,90.8064584 17.8862962,91.2150155 17.4406068,91.2150155 C17.1411513,91.2150155 16.8370536,91.3577783 16.6045734,91.6075047 C16.3398528,91.8918703 16.0760857,92 15.6471696,92 L15.0551497,92 L15.4853981,91.4384421 L15.4853987,91.4384427 Z M13.7174913,88.2666675 C13.7656583,88.0270411 13.7384046,87.991596 13.6411112,88.1673342 C13.5579137,88.3176041 13.366248,88.5112292 13.2151877,88.5976109 C13.0222048,88.7079545 13.0449176,88.7374888 13.2915659,88.6969443 C13.4846344,88.6651981 13.6763017,88.4715828 13.7174912,88.2666675 Z M5.91449455,90.5775051 C5.85051022,90.1832456 5.89530131,90.0922888 6.17691279,90.0445903 C6.47044838,89.9948773 6.50934917,90.0406746 6.54291825,90.4754745 C6.55847292,90.6769372 5.94675052,90.7762679 5.91449455,90.5775052 Z M3.27160494,89.0428529 C3.27160494,88.862143 3.41882645,88.7142857 3.59876495,88.7142857 C3.77870344,88.7142857 3.92592593,88.862143 3.92592593,89.0428529 C3.92592593,89.2235712 3.7787033,89.3714286 3.59876495,89.3714286 C3.41882645,89.3714286 3.27160494,89.2235712 3.27160494,89.0428529 Z M2.13068622,88.9019033 C1.90637317,88.6047445 1.6043953,88.3616162 1.45962188,88.3616162 C1.14801904,88.3616162 0.664703617,87.8466425 0.82112726,87.6812976 C0.880945599,87.6180709 0.733221245,87.5889756 0.492852686,87.6166422 C0.0982659629,87.6620588 0.051511166,87.6202018 0.0114972067,87.1857127 C-0.0304383599,86.730376 0.00806644982,86.6903379 0.726870907,86.4418191 C1.34722298,86.2273418 1.66085182,86.1834859 1.56986359,86.0873043 C1.34448865,85.8490802 1.51965105,85.4285714 1.84426068,85.4285714 C1.98955588,85.4285714 2.25449334,85.5367105 2.43301272,85.6688844 C2.61153136,85.8010524 2.92216461,85.861968 3.12287407,86.108662 C3.32358288,86.3553499 3.48780005,86.6505879 3.48780005,86.7647356 C3.48780005,86.8788834 3.92592593,87.1089558 3.92592593,87.2761736 C3.92592593,87.4828834 3.85586789,87.5516566 3.70686299,87.4912151 C3.58637879,87.442341 3.48780005,87.3270467 3.48780005,87.2350009 C3.48780005,87.1429491 3.39673589,87.1992787 3.28543657,87.3601756 C3.13006989,87.5847615 3.12024971,87.7389595 3.24314679,88.0240708 C3.37163255,88.3221541 3.35729051,88.4309354 3.17046588,88.575337 C3.04245007,88.6742798 2.91361363,88.8866862 2.88416093,89.0473371 C2.7971778,89.5218104 2.56476456,89.476958 2.13068631,88.9019031 L2.13068622,88.9019033 Z M4.58024691,89.1241807 C4.58024691,88.7559307 4.90750289,88.5826117 5.1360884,88.8298039 C5.28180923,88.9873806 5.26806673,89.0798399 5.079795,89.2085581 C4.72744007,89.449459 4.58024691,89.4245888 4.58024691,89.1241807 Z M9.18443341,89.1804225 C9.12644499,89.0730378 9.17747876,88.8047067 9.29784303,88.5841284 C9.47273835,88.2636124 9.58631734,88.2257204 9.86343054,88.3954593 C10.1324446,88.5602282 10.2463245,88.5339142 10.3714221,88.2780793 C10.4960633,88.0231861 10.6108456,87.9962073 10.8770349,88.1592431 C11.1705104,88.3390011 11.1888177,88.4311355 11.0009119,88.782698 C10.8544957,89.0566323 10.6460078,89.1666366 10.3803077,89.1101387 C10.160246,89.0633513 9.98019388,89.10395 9.98019388,89.2003659 C9.98019388,89.4397557 9.31548288,89.4230968 9.1844333,89.1804227 L9.18443341,89.1804225 Z M7.85185193,87.7928107 C7.85185193,87.6195571 7.93611068,87.4778092 8.03909359,87.4778092 C8.14879195,87.4778092 8.22633645,87.2945854 8.22633645,87.0353932 C8.22633645,86.4562807 8.44035743,86.8068777 8.49640735,87.4778092 C8.53143231,87.8970553 8.48139529,87.9911187 8.19512904,88.0441832 C7.94993222,88.0896314 7.85185185,88.0178073 7.85185185,87.7928107 Z M11.1234568,87.769033 C11.1234568,87.566073 11.2926315,87.4 11.499405,87.4 C11.9187063,87.4 11.8456856,87.9017538 11.4054186,88.0458125 C11.2503402,88.096557 11.1234569,87.9720113 11.1234569,87.769033 L11.1234568,87.769033 Z M6.1319403,87.2653733 C5.76618976,86.9394135 5.82608252,86.1922971 6.22529278,86.1009255 C6.6175119,86.0111512 6.66051241,86.3412652 6.27755145,86.5020994 C6.09079856,86.5805285 6.0984857,86.6924586 6.3020806,86.859154 C6.46518712,86.992705 6.55414621,87.1926681 6.49976647,87.303515 C6.43117767,87.4433453 6.31853419,87.4316642 6.1319403,87.2653732 Z M10.4691358,86.5856544 C10.4691358,86.0914259 10.8127853,85.9076936 11.0180243,86.2921879 C11.2030625,86.6388426 11.152928,86.7428571 10.8008031,86.7428571 C10.5881946,86.7428571 10.4691358,86.6864276 10.4691358,86.5856544 Z M8.5772506,86.612716 C8.45778404,86.4825659 8.49250849,86.2868785 8.65441485,86.1778627 C9.03805829,85.9195435 9.34299509,86.2517628 9.03262091,86.5899016 C8.85167808,86.7870303 8.74227907,86.7925181 8.5772506,86.612716 Z M3.92592593,85.7166809 C3.92592593,85.5137117 4.05280777,85.3891568 4.20788575,85.4399012 C4.64815502,85.5839601 4.72117567,86.0857143 4.30187432,86.0857143 C4.09510258,86.0857143 3.92592608,85.9196502 3.92592608,85.7166809 L3.92592593,85.7166809 Z M9.81481481,63.4142857 C9.81481481,63.2335735 9.96203658,63.0857143 10.1419743,63.0857143 C10.321914,63.0857143 10.4691358,63.2335735 10.4691358,63.4142857 C10.4691358,63.5950064 10.321914,63.7428571 10.1419743,63.7428571 C9.96203658,63.7428571 9.81481481,63.5950064 9.81481481,63.4142857 Z M10.1907472,61.6853921 C9.88018912,61.5329966 9.7066241,60.9624544 9.88926772,60.6943902 C10.078434,60.4167539 10.5716746,60.3680637 10.5716746,60.6270263 C10.5716746,60.7449558 10.6605135,60.7430544 10.8475663,60.6211132 C11.0864933,60.4653593 11.1234568,60.4933306 11.1234568,60.8299022 C11.1234568,61.0436571 10.9985958,61.3487748 10.8459894,61.5079328 C10.5580889,61.8082023 10.4826385,61.8286402 10.1907472,61.6853921 Z M10.4888251,59.6206995 C10.3806252,59.3581348 10.7424419,59.0362356 10.9873414,59.1771787 C11.2190718,59.3105346 11.1407737,59.6800653 10.8594884,59.7805763 C10.7042391,59.8360517 10.5501922,59.7696051 10.488825,59.6206994 Z M25.0852935,45.7184885 C24.7800065,45.3314948 24.7882142,45.1674616 25.1264675,44.895665 C25.5189526,44.5802949 26.0786735,44.6239651 26.4817059,45.0014033 L26.8271605,45.3249154 L26.3160562,45.6710479 C25.6893344,46.0954747 25.391737,46.1069456 25.0852934,45.7184886 Z" id="path1351"></path>
                    </g>
                </g>
            </g>
        </g>
    </g>
</svg>