<?xml version="1.0" encoding="UTF-8"?>
<svg width="87px" height="64px" viewBox="0 0 87 64" version="1.1" xmlns="http://www.w3.org/2000/svg" xmlns:xlink="http://www.w3.org/1999/xlink">
    <!-- Generator: Sketch 51.2 (57519) - http://www.bohemiancoding.com/sketch -->
    <title>plane-fun-svgrepo-com</title>
    <desc>Created with Sketch.</desc>
    <defs></defs>
    <g id="Page-1" stroke="none" stroke-width="1" fill="none" fill-rule="evenodd">
        <g id="Desktop-FullHd" transform="translate(-1257.000000, -675.000000)" fill-rule="nonzero">
            <g id="InfoBoxes" transform="translate(145.000000, 636.000000)">
                <g id="ChildProgrammes" transform="translate(1073.000000, 0.000000)">
                    <g id="plane-fun-svgrepo-com" transform="translate(40.000000, 40.000000)">
                        <path d="M79,25 C78.6966646,18.5598977 74.068473,13.2077331 68,12 L68,25 L79,25 Z" id="Shape"></path>
                        <path d="M67.5926788,23.7536945 L67.5926788,11.2515784 C66.7077397,11.0880916 65.7940506,11.0001567 64.8582587,11.0001567 L54.7732773,11.0001567 C52.6809989,11.0001567 50.9849073,12.5999135 50.9849073,14.5733543 L50.9849073,20.2695291 C50.9849073,21.3545297 50.052273,22.2341921 48.9017691,22.2341921 L15.0849662,22.2341921 L15.0849662,21.4891751 C15.0849662,15.6961309 10.1060416,11 3.9641492,11 L2,11 L2,36 L10.8636824,36 C13.1951021,36 15.0849662,34.2174766 15.0849662,32.0184773 L15.0849662,30.4619827 L48.9016029,30.4619827 C50.0519406,30.4619827 50.9847411,31.3416451 50.9847411,32.4268024 C50.9847411,34.4002433 52.6808327,36 54.7731111,36 L73.6448309,36 C76.6024384,36 79,33.7386155 79,30.9489946 L79,24.3385164 C79,24.1212655 78.9935188,23.9682807 78.9825505,23.7535378 L67.5926788,23.7536945 Z" id="Shape"></path>
                        <g id="Group" transform="translate(52.000000, 1.000000)">
                            <rect id="Rectangle-path" x="0.0101818182" y="0.123329317" width="14.6836364" height="4.1553253"></rect>
                            <ellipse id="Oval" cx="11.1036768" cy="35.8588635" rx="4.89422222" ry="4.98635743"></ellipse>
                        </g>
                        <path d="M49.5000685,59 L31.4999315,59 C30.1192103,59 29,58.1044672 29,57 C29,55.8953928 30.1193854,55 31.4999315,55 L49.5000685,55 C50.8807897,55 52,55.8955328 52,57 C52,58.1047472 50.8807897,59 49.5000685,59 Z" id="Shape"></path>
                        <g id="Group">
                            <path d="M83.3068066,20.1760532 C82.3718066,20.1760532 81.6136133,20.9289574 81.6136133,21.8578032 L81.6136133,26.5566117 L80.3075684,26.5566117 L80.3075684,25.45875 C80.3075684,25.1866755 80.2992676,24.9912766 80.2886426,24.7642181 C80.2886426,24.7630638 80.2883105,24.7619096 80.2883105,24.7607553 C80.1188086,21.2505 78.7466895,17.8489096 76.4249609,15.18225 C74.1178418,12.5325745 70.964043,10.7067074 67.5442871,10.0410319 C66.5350781,9.84480851 65.5066113,9.74504787 64.4869434,9.74504787 L61.5381738,9.74504787 L61.5381738,7.6157766 L67.55375,7.6157766 C68.48875,7.6157766 69.2469434,6.86287234 69.2469434,5.9340266 L69.2469434,1.77277128 C69.2469434,0.843925532 68.48875,0.0910212766 67.55375,0.0910212766 L52.4712305,0.0910212766 C51.5362305,0.0910212766 50.7780371,0.843925532 50.7780371,1.77277128 L50.7780371,5.9340266 C50.7780371,6.86287234 51.5362305,7.6157766 52.4712305,7.6157766 L58.1517871,7.6157766 L58.1517871,9.74504787 L54.4124512,9.74504787 C51.3919629,9.74504787 48.9345996,12.1858032 48.9345996,15.1857128 L48.9345996,21.1779468 C48.9345996,21.3901649 48.7607813,21.5631383 48.5469531,21.5631383 L16.426582,21.5631383 C15.9614062,14.9687128 10.4111719,9.74504787 3.65549805,9.74504787 L1.69319336,9.74504787 C0.758193359,9.74504787 0,10.4979521 0,11.4267979 L0,37.7261755 C0,38.6550213 0.758193359,39.4079255 1.69319336,39.4079255 L10.5479688,39.4079255 C13.7919141,39.4079255 16.4337207,36.7986489 16.457793,33.5820691 L37.7655664,33.5820691 L39.7487891,34.4594681 L34.0874902,35.3070213 C33.0643359,35.4602074 32.32125,36.2845106 32.2807422,37.3113032 C32.2404004,38.3384255 32.916084,39.2178032 33.9241309,39.4498085 C33.9337598,39.4519521 33.9432227,39.4542606 33.9528516,39.4562394 L37.9850391,40.3110479 L33.9508594,41.0382287 C33.9423926,41.0397128 33.9340918,41.0413617 33.925791,41.0430106 C32.916748,41.2405532 32.2120117,42.0920638 32.2120117,43.1135798 C32.2120117,44.1350957 32.916748,44.9866064 33.925791,45.1841489 C33.9342578,45.1857979 33.9425586,45.1872819 33.9508594,45.1889309 L37.9883594,45.9167713 L33.8248535,46.8004362 C33.8153906,46.8024149 33.8059277,46.8043936 33.7964648,46.806867 C32.799873,47.036234 32.1236914,47.905883 32.1522461,48.9214628 C32.1808008,49.9370426 32.9044629,50.7681064 33.9125098,50.9420691 L41.0075195,52.1675585 L38.2468457,53.8352926 L30.8413867,53.8352926 C28.6003418,53.8352926 26.7771582,55.6463191 26.7771582,57.8720532 C26.7771582,60.0977872 28.6005078,61.9088138 30.8413867,61.9088138 L47.9132715,61.9088138 C50.1543164,61.9088138 51.977666,60.0977872 51.977666,57.8720532 C51.977666,55.6463191 50.1541504,53.8352926 47.9132715,53.8352926 L44.7637891,53.8352926 L45.6370313,53.3079628 C46.4008691,52.8464255 46.7866895,51.9845266 46.6205078,51.1120745 C46.4541602,50.2396223 45.7776465,49.5775745 44.8967676,49.4255426 L40.9087402,48.736617 L44.9492285,47.8790053 C44.9588574,47.8770266 44.9683203,47.874883 44.9779492,47.8725745 C45.9629199,47.6456809 46.6391016,46.7857606 46.622334,45.7815585 C46.6054004,44.7773564 45.9006641,43.9403564 44.9085547,43.7461117 C44.9002539,43.7444628 44.8917871,43.7429787 44.8836523,43.7413298 L41.4014746,43.1137447 L44.8836523,42.4861596 C44.8919531,42.4846755 44.9004199,42.4830266 44.9085547,42.4813777 C45.9006641,42.287133 46.6054004,41.450133 46.622334,40.4459309 C46.6391016,39.4415638 45.9627539,38.5818085 44.9779492,38.35475 C44.9681543,38.3524415 44.9585254,38.3502979 44.9488965,38.3481543 L41.4494531,37.606133 L44.5285449,37.1450904 C45.4708496,37.0039415 46.1898633,36.2787394 46.3171973,35.3406596 C46.4078418,34.6748191 46.1813965,34.034867 45.7314941,33.5817394 L48.5462891,33.5817394 C48.7599512,33.5817394 48.9339355,33.754383 48.9339355,33.9669309 C48.9339355,36.9668404 51.3912988,39.4075957 54.4117871,39.4075957 L57.4096973,39.4075957 C58.2188574,42.1918245 60.8062109,44.2346915 63.866543,44.2346915 C66.926709,44.2346915 69.5138965,42.1918245 70.3232227,39.4075957 L73.2643555,39.4075957 C77.147793,39.4075957 80.3072363,36.2695053 80.3072363,32.4121489 L80.3072363,29.9197819 L81.6132812,29.9197819 L81.6132812,34.3966436 C81.6132812,35.3254894 82.3714746,36.0783936 83.3064746,36.0783936 C84.2414746,36.0783936 85,35.3261489 85,34.3973032 L85,21.8579681 C85,20.9291223 84.2418066,20.1760532 83.3068066,20.1760532 Z M54.1644238,3.45452128 L65.8605566,3.45452128 L65.8605566,4.2521117 L54.1644238,4.2521117 L54.1644238,3.45452128 Z M48.5917773,57.872383 C48.5917773,58.2437234 48.2876367,58.5456436 47.9137695,58.5456436 L30.8415527,58.5456436 C30.4678516,58.5456436 30.1637109,58.2435585 30.1637109,57.872383 C30.1637109,57.5012074 30.4678516,57.1991223 30.8415527,57.1991223 L47.9134375,57.1991223 C48.2876367,57.1991223 48.5917773,57.5010426 48.5917773,57.872383 Z M76.6899219,23.1617819 L68.9117578,23.1617819 L68.9117578,13.922133 C72.8737207,15.4455851 75.862666,18.9833777 76.6899219,23.1617819 Z M63.867041,40.8715213 C62.028584,40.8715213 60.5327832,39.3858298 60.5327832,37.5597979 C60.5327832,35.733766 62.028584,34.2480745 63.867041,34.2480745 C65.705332,34.2480745 67.2011328,35.733766 67.2011328,37.5597979 C67.2011328,39.3858298 65.705498,40.8715213 63.867041,40.8715213 Z M76.9211816,26.5252819 L76.9211816,32.4126436 C76.9211816,34.4151117 75.2809473,36.0444255 73.2648535,36.0444255 L70.4110449,36.0444255 C69.7179297,33.0915106 67.0480664,30.8844096 63.867207,30.8844096 C60.6861816,30.8844096 58.0163184,33.0915106 57.3232031,36.0444255 L54.4127832,36.0444255 C53.2594727,36.0444255 52.3213184,35.1126117 52.3213184,33.9672606 C52.3213184,31.9001543 50.628291,30.2185691 48.5472852,30.2185691 L14.7647656,30.2185691 C13.8297656,30.2185691 13.0715723,30.9714734 13.0715723,31.9003191 L13.0715723,33.5377128 C13.0715723,34.9198511 11.9393457,36.0444255 10.5479688,36.0444255 L3.38638672,36.0444255 L3.38638672,13.1085479 L3.65533203,13.1085479 C8.8474707,13.1085479 13.0715723,17.3041011 13.0715723,22.4611489 L13.0715723,23.2448883 C13.0715723,24.173734 13.8297656,24.9266383 14.7647656,24.9266383 L48.5469531,24.9266383 C50.627959,24.9266383 52.3209863,23.2450532 52.3209863,21.1779468 L52.3209863,15.1857128 C52.3209863,14.0401968 53.2591406,13.1085479 54.4124512,13.1085479 L64.4869434,13.1085479 C64.8322559,13.1085479 65.1788965,13.1230585 65.5253711,13.1520798 L65.5253711,23.1617819 L63.5318555,23.1617819 C62.5968555,23.1617819 61.8386621,23.9146862 61.8386621,24.8435319 C61.8386621,25.7723777 62.5968555,26.5252819 63.5318555,26.5252819 L76.9211816,26.5252819 Z" id="Shape" stroke="#FFFFFF" stroke-width="2"></path>
                            <path d="M58.6719141,23.1617819 L58.1692187,23.1617819 C57.2342187,23.1617819 56.4760254,23.9146862 56.4760254,24.8435319 C56.4760254,25.7723777 57.2342187,26.5252819 58.1692187,26.5252819 L58.6719141,26.5252819 C59.6069141,26.5252819 60.3651074,25.7723777 60.3651074,24.8435319 C60.3651074,23.9146862 59.6069141,23.1617819 58.6719141,23.1617819 Z" id="Shape" fill="#FFFFFF"></path>
                        </g>
                    </g>
                </g>
            </g>
        </g>
    </g>
</svg>