<?xml version="1.0" encoding="UTF-8"?>
<svg width="102px" height="59px" viewBox="0 0 102 59" version="1.1" xmlns="http://www.w3.org/2000/svg" xmlns:xlink="http://www.w3.org/1999/xlink">
    <!-- Generator: Sketch 51.2 (57519) - http://www.bohemiancoding.com/sketch -->
    <title>hu</title>
    <desc>Created with Sketch.</desc>
    <defs></defs>
    <g id="Page-1" stroke="none" stroke-width="1" fill="none" fill-rule="evenodd">
        <g id="Desktop-FullHd" transform="translate(-544.000000, -678.000000)" fill-rule="nonzero" stroke="#FFFFFF">
            <g id="InfoBoxes" transform="translate(145.000000, 636.000000)">
                <g id="HU" transform="translate(361.000000, 0.000000)">
                    <g id="hu" transform="translate(45.000000, 43.000000)">
                        <polygon id="Shape" stroke-width="2" points="92.442 12.1078431 92.628 11.7352941 92.628 11.5490196 92.814 11.3627451 92.814 10.9901961 92.628 10.6176471 92.442 10.4313725 92.256 10.245098 91.884 9.87254902 91.512 9.5 91.326 9.5 91.14 9.31372549 90.954 9.31372549 90.768 9.5 90.396 9.68627451 89.466 9.68627451 89.28 9.68627451 89.28 9.68627451 89.094 9.68627451 88.908 9.12745098 88.722 8.56862745 88.536 8.00980392 87.606 6.70588235 87.42 6.70588235 87.42 6.70588235 87.42 6.70588235 87.048 6.89215686 86.862 6.89215686 86.676 6.89215686 86.49 6.70588235 86.304 6.70588235 86.304 6.70588235 86.118 6.89215686 86.118 6.89215686 85.932 6.89215686 85.932 6.70588235 85.188 5.7745098 85.002 5.21568627 85.002 5.02941176 85.002 4.65686275 85.002 4.47058824 85.002 4.28431373 84.816 4.28431373 84.444 4.28431373 84.444 4.09803922 84.63 3.35294118 84.258 3.16666667 83.7 3.16666667 83.328 3.35294118 83.142 3.35294118 83.142 3.35294118 82.77 3.35294118 82.584 3.7254902 82.212 3.91176471 82.026 3.91176471 81.282 3.91176471 80.91 3.91176471 80.724 3.91176471 79.98 4.09803922 79.794 4.09803922 79.422 4.28431373 78.678 4.47058824 78.12 4.84313725 77.562 4.84313725 77.19 4.65686275 76.818 4.47058824 76.446 4.09803922 75.702 2.79411765 75.702 2.60784314 75.516 1.8627451 75.33 1.49019608 75.144 1.49019608 74.586 1.49019608 74.4 1.30392157 74.4 1.30392157 74.214 0.931372549 74.028 0.745098039 74.028 0.558823529 73.656 0.558823529 73.284 0.18627451 73.098 0.18627451 72.354 0.37254902 71.982 0.37254902 71.61 0.37254902 71.424 0.558823529 71.238 0.745098039 71.238 0.931372549 71.052 1.30392157 70.866 1.30392157 70.68 1.30392157 70.494 1.11764706 70.308 1.11764706 69.75 1.11764706 68.82 1.67647059 68.448 1.49019608 68.076 1.30392157 67.704 1.11764706 67.332 1.11764706 66.96 1.11764706 66.588 1.11764706 65.658 0.558823529 65.286 0.558823529 65.1 0.558823529 64.728 0.18627451 64.542 0 64.356 0 61.38 0.745098039 60.636 0.745098039 60.078 0.931372549 60.078 1.11764706 60.078 1.30392157 60.264 1.67647059 60.264 1.8627451 60.078 1.8627451 59.892 2.23529412 59.52 2.60784314 59.334 2.98039216 59.148 3.16666667 58.59 4.84313725 58.404 5.40196078 58.032 5.96078431 57.66 6.33333333 57.288 6.51960784 57.102 6.51960784 56.916 6.33333333 56.73 6.14705882 56.544 6.14705882 56.172 6.51960784 55.986 6.70588235 55.614 6.70588235 55.428 6.70588235 55.428 6.70588235 55.242 6.89215686 55.242 7.07843137 55.056 7.45098039 55.056 7.6372549 54.87 7.6372549 54.684 7.82352941 53.94 8.19607843 53.568 8.19607843 53.196 8.56862745 52.638 9.12745098 52.266 9.12745098 51.894 9.12745098 51.522 8.56862745 51.15 8.56862745 50.592 8.75490196 50.406 8.75490196 50.406 8.56862745 50.406 8.38235294 50.406 8.19607843 50.406 8.00980392 50.22 7.6372549 49.848 7.6372549 49.29 7.6372549 49.104 7.6372549 48.918 7.26470588 48.732 7.07843137 48.546 7.07843137 48.36 7.07843137 47.244 7.45098039 46.872 7.6372549 46.686 7.82352941 46.686 8.75490196 46.5 8.94117647 46.5 9.12745098 46.5 9.12745098 46.5 9.31372549 46.5 9.5 45.756 10.0588235 43.896 9.87254902 42.966 10.4313725 42.966 10.6176471 41.106 10.245098 40.362 10.4313725 39.804 10.4313725 39.618 10.4313725 37.572 10.9901961 37.386 11.1764706 37.014 11.9215686 36.828 11.9215686 36.642 12.1078431 36.456 12.1078431 36.27 12.2941176 36.27 12.4803922 36.456 12.4803922 36.456 12.6666667 36.456 13.5980392 36.27 13.9705882 36.456 14.3431373 36.828 14.7156863 37.386 15.0882353 37.014 15.2745098 36.642 15.4607843 36.456 15.6470588 35.898 16.0196078 35.712 16.2058824 35.34 16.3921569 34.782 16.2058824 34.41 16.0196078 33.666 16.0196078 30.876 16.2058824 29.946 16.7647059 29.388 16.7647059 27.714 16.5784314 23.808 16.7647059 22.506 16.5784314 21.762 16.0196078 21.576 15.8333333 21.39 15.6470588 21.204 15.4607843 20.832 15.2745098 20.646 15.0882353 20.46 15.0882353 20.46 15.2745098 20.274 15.2745098 20.088 15.0882353 19.716 14.3431373 19.53 14.3431373 19.158 14.1568627 18.972 14.1568627 18.972 13.9705882 17.484 12.1078431 17.112 11.7352941 16.182 11.5490196 15.438 11.3627451 14.88 11.3627451 14.508 11.7352941 13.578 12.2941176 13.764 12.4803922 13.764 12.6666667 13.578 12.8529412 13.578 13.0392157 13.578 13.0392157 13.392 13.0392157 13.392 13.2254902 13.392 13.2254902 13.578 13.2254902 13.578 13.2254902 13.578 13.2254902 13.578 13.5980392 13.578 13.9705882 13.392 14.1568627 13.206 14.3431373 12.648 14.3431373 12.462 14.5294118 12.462 14.7156863 12.648 14.9019608 12.834 14.9019608 13.02 15.0882353 13.02 15.4607843 13.206 15.6470588 13.02 15.8333333 13.02 16.2058824 13.02 16.5784314 13.206 17.1372549 13.206 17.5098039 13.392 17.5098039 13.392 17.6960784 13.206 17.8823529 12.276 17.8823529 11.16 18.0686275 10.602 18.0686275 10.416 17.5098039 10.23 17.6960784 10.044 18.0686275 9.858 18.254902 9.672 18.254902 8.928 18.0686275 8.742 18.0686275 8.742 17.8823529 8.556 17.6960784 8.556 17.5098039 8.37 17.3235294 8.184 17.1372549 7.068 16.7647059 6.51 16.7647059 6.138 16.9509804 5.952 17.1372549 5.952 17.3235294 5.952 17.5098039 5.766 17.6960784 5.208 18.0686275 5.022 18.0686275 5.022 18.254902 5.022 18.0686275 4.836 18.0686275 4.836 18.0686275 4.65 18.0686275 4.464 18.4411765 4.278 18.627451 4.65 18.8137255 5.394 19 5.766 19 6.696 19.372549 7.068 19.1862745 7.44 19.372549 7.626 19.745098 7.812 20.1176471 7.626 20.4901961 7.812 20.6764706 7.998 20.8627451 8.184 21.0490196 8.184 21.4215686 7.998 21.6078431 7.626 21.7941176 7.44 21.9803922 7.44 22.9117647 6.882 23.2843137 5.394 24.0294118 5.208 23.8431373 5.022 23.6568627 4.836 23.6568627 4.65 24.0294118 4.65 24.7745098 4.65 24.7745098 4.65 24.7745098 4.464 24.9607843 4.464 24.9607843 4.65 25.1470588 4.65 25.1470588 4.65 25.1470588 4.65 25.1470588 5.208 26.0784314 5.208 26.4509804 5.208 26.6372549 5.022 26.8235294 4.464 27.0098039 4.464 27.3823529 4.278 27.9411765 4.464 28.127451 4.464 28.3137255 4.65 28.3137255 4.836 28.5 4.836 28.5 4.65 28.872549 4.65 29.0588235 4.836 29.245098 5.394 28.872549 5.58 28.872549 5.766 29.245098 5.58 29.4313725 5.394 29.8039216 5.022 29.9901961 5.022 30.3627451 5.022 30.5490196 5.394 30.7352941 5.58 30.7352941 5.58 30.9215686 5.58 30.9215686 5.394 31.1078431 4.65 31.2941176 4.464 31.4803922 5.022 31.4803922 5.208 31.6666667 5.394 31.8529412 5.394 32.0392157 5.208 32.0392157 4.836 32.0392157 4.464 32.0392157 4.464 32.2254902 4.464 32.2254902 4.278 32.2254902 4.278 32.0392157 4.092 32.0392157 3.72 31.8529412 3.162 32.0392157 2.604 31.8529412 2.418 31.8529412 2.418 32.0392157 2.232 32.4117647 2.232 32.5980392 2.046 32.5980392 1.86 32.5980392 1.86 32.7843137 1.86 32.9705882 1.86 32.9705882 1.86 33.1568627 1.674 33.1568627 1.488 33.3431373 1.116 33.5294118 0.93 33.7156863 0.372 34.4607843 0.186 34.6470588 0 34.6470588 0.558 34.8333333 2.418 34.6470588 2.604 34.8333333 2.79 35.2058824 2.976 35.2058824 3.162 35.2058824 3.162 35.3921569 3.162 35.5784314 3.162 35.7647059 2.976 35.9509804 2.79 36.3235294 2.79 36.5098039 2.79 36.5098039 2.976 37.0686275 3.162 37.254902 3.348 37.627451 3.348 37.627451 3.534 37.627451 3.534 38 3.72 38.1862745 4.092 38.1862745 4.278 38.1862745 4.278 38.5588235 4.092 38.745098 3.906 38.9313725 3.72 39.1176471 3.906 39.4901961 4.092 39.6764706 4.65 39.8627451 5.208 40.6078431 5.58 40.9803922 5.766 41.9117647 5.952 41.9117647 6.51 42.2843137 6.696 42.4705882 6.696 42.4705882 6.696 42.2843137 6.882 42.2843137 6.882 42.2843137 7.068 42.2843137 7.44 42.4705882 7.812 42.6568627 7.998 43.0294118 8.184 43.4019608 8.556 43.5882353 8.928 43.9607843 9.114 44.3333333 9.114 44.3333333 9.3 43.9607843 9.3 43.9607843 9.672 44.1470588 9.858 44.1470588 9.858 44.1470588 9.858 44.3333333 10.044 44.3333333 10.044 44.5196078 10.044 44.3333333 10.044 44.3333333 10.23 44.3333333 10.416 44.5196078 10.602 44.7058824 10.788 45.0784314 10.602 45.4509804 10.974 46.0098039 10.974 46.1960784 11.16 46.1960784 11.532 46.9411765 11.904 47.5 12.09 47.6862745 12.834 48.245098 13.02 48.4313725 13.02 48.6176471 13.206 48.8039216 13.764 49.3627451 13.95 49.3627451 15.066 49.3627451 15.252 49.5490196 15.81 50.2941176 15.996 50.4803922 16.182 51.0392157 16.182 51.2254902 16.182 51.5980392 16.368 51.7843137 16.74 51.7843137 16.74 51.9705882 16.74 51.9705882 16.554 51.9705882 16.368 51.9705882 16.368 52.1568627 16.554 52.1568627 16.74 52.3431373 16.926 52.3431373 17.112 52.1568627 17.112 52.5294118 17.112 52.7156863 17.112 52.7156863 17.484 52.7156863 17.856 52.5294118 17.856 52.7156863 18.042 52.9019608 18.042 52.9019608 18.042 52.9019608 18.228 52.7156863 18.228 52.7156863 19.53 52.7156863 20.088 52.9019608 20.46 53.0882353 21.204 53.8333333 21.204 54.0196078 21.39 54.2058824 21.39 54.3921569 21.39 54.7647059 21.39 54.9509804 21.576 54.9509804 21.762 54.9509804 23.436 55.5098039 23.808 55.8823529 24.18 56.254902 24.18 56.4411765 24.366 56.4411765 24.366 56.254902 24.552 56.0686275 24.552 56.0686275 25.854 56.0686275 27.156 56.4411765 27.342 56.4411765 27.528 56.254902 27.714 56.254902 27.9 56.0686275 29.016 56.0686275 29.202 56.254902 29.76 56.4411765 29.946 56.4411765 30.318 56.8137255 30.504 56.8137255 30.69 56.8137255 30.876 56.627451 31.248 56.627451 31.434 57 31.434 57 31.62 57 31.806 57 31.992 56.8137255 32.55 56.0686275 32.736 56.0686275 33.108 56.0686275 33.48 56.0686275 34.038 55.5098039 34.224 55.3235294 34.41 54.7647059 34.596 54.3921569 34.782 54.3921569 34.782 54.3921569 34.782 54.2058824 34.782 54.0196078 35.154 53.6470588 35.526 53.6470588 36.084 53.8333333 36.642 54.2058824 36.828 54.2058824 37.014 54.2058824 37.014 54.0196078 37.014 53.8333333 37.2 53.6470588 37.386 53.8333333 37.572 53.8333333 37.758 53.6470588 38.13 53.4607843 38.13 53.4607843 38.316 53.2745098 38.502 53.2745098 38.688 53.2745098 39.432 53.2745098 39.432 53.2745098 39.618 53.4607843 39.618 53.4607843 39.804 53.4607843 39.804 53.2745098 39.804 53.2745098 39.618 53.2745098 39.618 53.2745098 39.618 53.0882353 39.618 53.0882353 39.618 52.9019608 39.618 52.9019608 39.99 52.7156863 40.176 52.7156863 40.362 52.7156863 40.548 52.7156863 40.548 51.9705882 40.734 51.5980392 41.106 51.5980392 41.478 51.5980392 41.478 51.9705882 41.664 51.9705882 41.664 51.9705882 41.85 52.1568627 43.152 52.3431373 43.524 52.3431373 43.524 52.1568627 43.71 51.9705882 43.71 51.9705882 43.71 51.7843137 43.71 51.5980392 43.896 51.4117647 44.082 51.2254902 44.268 51.2254902 44.268 51.2254902 44.826 51.2254902 45.012 51.2254902 45.198 51.0392157 45.198 50.8529412 45.384 50.6666667 45.384 50.6666667 45.57 50.6666667 45.756 50.4803922 45.756 50.4803922 46.128 50.2941176 46.128 50.1078431 46.128 50.1078431 46.128 50.1078431 46.314 49.9215686 46.314 49.9215686 46.5 49.7352941 46.686 49.7352941 46.686 49.5490196 46.5 49.3627451 46.5 49.3627451 46.5 49.3627451 46.5 49.1764706 46.686 48.9901961 46.686 48.9901961 46.872 48.9901961 47.058 48.8039216 47.244 48.6176471 47.43 48.6176471 47.43 48.6176471 47.616 48.6176471 47.988 48.6176471 48.732 48.4313725 49.104 48.4313725 49.29 48.6176471 50.034 48.9901961 50.406 49.1764706 50.778 49.3627451 52.08 48.8039216 52.452 48.6176471 52.638 48.6176471 53.568 48.8039216 54.126 48.9901961 54.126 48.9901961 54.498 48.9901961 54.684 48.8039216 54.87 48.8039216 54.87 48.8039216 54.87 48.8039216 55.242 48.8039216 55.242 48.8039216 55.242 48.9901961 55.428 49.1764706 55.428 49.1764706 55.428 49.1764706 55.614 49.1764706 55.986 48.9901961 55.986 48.9901961 56.172 49.1764706 56.916 49.7352941 57.474 48.9901961 59.706 48.9901961 60.078 48.4313725 60.636 48.6176471 61.194 48.8039216 61.566 49.1764706 61.566 49.1764706 61.752 49.3627451 61.938 49.3627451 62.682 49.1764706 63.054 48.9901961 63.24 48.8039216 63.24 48.6176471 63.24 48.245098 63.426 48.245098 63.426 48.0588235 63.612 48.245098 63.612 48.245098 63.798 48.0588235 63.798 47.872549 63.612 47.5 63.612 47.3137255 63.798 47.127451 64.17 46.754902 64.542 46.5686275 64.728 46.5686275 65.1 46.5686275 65.286 46.5686275 65.472 46.754902 65.658 46.754902 65.658 46.754902 66.03 46.754902 66.03 46.754902 66.216 46.754902 66.774 46.9411765 67.146 46.9411765 67.146 46.9411765 67.332 46.9411765 67.332 46.9411765 67.518 47.127451 67.704 47.3137255 68.076 47.3137255 68.634 46.3823529 68.82 46.3823529 69.192 46.3823529 69.192 46.1960784 69.378 46.0098039 69.564 45.6372549 69.564 44.7058824 69.75 44.3333333 69.936 43.9607843 70.122 43.9607843 70.866 43.9607843 71.052 43.5882353 71.052 43.2156863 70.68 42.4705882 70.68 42.0980392 70.866 41.7254902 71.052 41.3529412 71.238 40.9803922 71.238 40.2352941 71.424 39.8627451 71.61 39.6764706 71.982 39.6764706 72.354 39.6764706 72.726 39.4901961 72.912 39.1176471 73.098 38.745098 73.284 38.5588235 73.656 38.5588235 73.842 38.372549 74.214 38 74.214 37.627451 73.842 37.254902 73.842 37.254902 73.842 37.254902 73.656 37.254902 73.656 37.0686275 73.842 36.8823529 73.842 36.8823529 73.842 36.6960784 74.214 35.9509804 74.4 35.5784314 74.586 35.3921569 75.144 35.2058824 75.33 35.0196078 75.33 34.8333333 75.33 34.6470588 75.33 34.2745098 75.33 34.0882353 75.33 33.9019608 75.33 33.9019608 75.516 33.7156863 76.074 33.3431373 76.26 33.1568627 76.446 32.2254902 76.446 32.2254902 76.446 32.0392157 76.446 31.8529412 76.26 31.8529412 76.074 31.8529412 76.074 31.6666667 75.888 31.4803922 76.446 30.9215686 76.818 30.5490196 77.562 30.1764706 77.748 29.9901961 77.934 29.8039216 77.934 29.4313725 77.934 29.245098 78.12 29.0588235 78.492 28.6862745 78.492 28.5 78.678 28.3137255 78.678 28.127451 78.678 27.9411765 78.678 27.754902 78.678 27.5686275 78.864 27.1960784 78.864 27.0098039 79.05 26.2647059 79.05 26.0784314 79.608 25.3333333 79.98 24.9607843 80.166 24.7745098 80.724 24.5882353 81.096 24.0294118 81.096 23.4705882 80.91 22.7254902 80.91 21.9803922 81.096 21.6078431 81.468 21.0490196 82.398 20.4901961 83.142 20.3039216 83.328 20.1176471 83.328 19.9313725 83.328 19.9313725 83.328 19.745098 83.328 19.5588235 83.7 19 83.7 18.8137255 83.886 18.4411765 83.886 18.4411765 83.886 18.254902 84.258 18.0686275 84.258 17.8823529 84.63 17.5098039 84.816 17.3235294 85.002 17.1372549 85.188 17.1372549 85.374 17.1372549 86.118 17.1372549 86.304 17.1372549 86.49 17.1372549 86.49 16.9509804 86.676 16.0196078 87.234 16.0196078 88.164 16.5784314 88.722 16.5784314 89.28 16.5784314 89.652 16.3921569 90.024 16.0196078 90.396 15.4607843 90.582 15.4607843 90.954 15.2745098 91.14 15.2745098 91.326 15.2745098 91.326 14.9019608 91.326 14.9019608 91.326 14.7156863 91.326 14.5294118 91.512 14.1568627 91.698 14.1568627 92.256 13.7843137 92.442 13.5980392 92.814 13.0392157 93 12.6666667 92.442 12.2941176"></polygon>
                        <polygon id="Shape" points="27.4705882 31.3783784 27.2941176 31.1891892 26.7647059 31 26.4117647 31 26.2352941 31 26.2352941 31.3783784 26.0588235 31.5675676 25.8823529 31.9459459 25.7058824 32.1351351 25.3529412 32.5135135 24.1176471 33.2702703 24.1176471 33.4594595 24.2941176 33.4594595 24.4705882 33.8378378 24.4705882 34.027027 24.4705882 34.2162162 24.2941176 34.2162162 23.7647059 33.8378378 23.7647059 33.8378378 23.5882353 34.027027 21.8235294 34.7837838 21.6470588 34.7837838 21.6470588 34.7837838 21.4705882 35.1621622 21.1176471 35.5405405 20.9411765 35.5405405 20.2352941 35.7297297 19.8823529 35.9189189 19.3529412 36.4864865 19 36.2972973 18.8235294 36.2972973 18.2941176 36.1081081 18.1176471 36.2972973 17.9411765 36.4864865 17.5882353 36.6756757 17.5882353 37.0540541 17.4117647 37.0540541 16.7058824 36.8648649 16.3529412 36.8648649 16 37.6216216 16.1764706 37.8108108 16.3529412 37.8108108 16.8823529 37.6216216 17.4117647 37.6216216 18.4705882 38 19 37.8108108 19.1764706 37.8108108 19.7058824 37.2432432 19.8823529 37.0540541 20.2352941 36.8648649 23.7647059 35.1621622 24.1176471 34.972973 24.4705882 34.5945946 24.6470588 34.4054054 24.8235294 34.2162162 25 34.2162162 25 34.2162162 26.7647059 33.6486486 27.2941176 33.2702703 27.6470588 33.0810811 27.8235294 32.5135135 28 32.1351351 28 31.9459459 27.8235294 31.5675676"></polygon>
                    </g>
                </g>
            </g>
        </g>
    </g>
</svg>