<?xml version="1.0" encoding="UTF-8"?>
<svg width="435px" height="156px" viewBox="0 0 435 156" version="1.1" xmlns="http://www.w3.org/2000/svg" xmlns:xlink="http://www.w3.org/1999/xlink">
    <!-- Generator: Sketch 51.2 (57519) - http://www.bohemiancoding.com/sketch -->
    <title>Group</title>
    <desc>Created with Sketch.</desc>
    <defs></defs>
    <g id="Page-1" stroke="none" stroke-width="1" fill="none" fill-rule="evenodd">
        <g id="FME_LOGO_2019_hun" transform="translate(-2482.000000, -562.000000)" fill-rule="nonzero">
            <g id="Group" transform="translate(2482.000000, 562.000000)">
                <path d="M117.371,1.019 C117.371,1.019 27.639,48.352 1.196,155.728 C1.196,155.728 -6.056,63.352 19.627,1.857 C19.627,1.857 115.598,1.398 117.371,1.019 Z" id="Shape" fill="#283A8D"></path>
                <path d="M65.352,86.762 C65.352,86.762 24.385,106.007 4.107,152.03 C3.693,152.867 26.868,93.457 48.799,74.212 C49.213,73.793 58.73,81.321 65.352,86.762 Z" id="Shape" fill="#202058"></path>
                <path d="M119.105,6.251 L119.105,57.12 C119.105,57.12 95.789,43.471 79.018,38.508 C79.019,38.096 96.199,21.137 119.105,6.251 Z" id="Shape" fill="#202058"></path>
                <path d="M142.094,10.931 L142.094,154.87 C142.094,154.87 157.127,96.313 189.405,61.891 C188.961,61.447 167.738,34.625 142.094,10.931 Z" id="Shape" fill="#6B110F"></path>
                <path d="M194.854,0.603 L143.394,0.603 C143.394,0.603 195.748,44.035 233.784,115.965 C234.231,116.417 226.535,37.017 194.854,0.603 Z" id="Shape" fill="#B4372D"></path>
                <path d="M290.67,1.055 L290.67,152.157 C290.67,152.157 288.271,152.169 288.257,152.169 C283.538,135.3 262.953,69.438 230.199,33.776 C229.729,34.042 258.451,11.459 290.67,1.055 Z" id="Shape" fill="#B4372D"></path>
                <path d="M252.179,80.686 C252.179,80.686 245.174,90.775 240.621,103.876 C240.162,103.876 235.468,63.415 224.572,37.167 C224.572,37.167 224.697,37.061 224.697,37.041 C224.697,37.042 245.555,65.053 252.179,80.686 Z" id="Shape" fill="#6B110F"></path>
                <path d="M423.611,0.603 L349.701,0.603 C349.701,0.603 315.889,12.647 309.933,64.072 C309.475,63.609 296.642,139.584 387.371,153.482 C386.914,153.02 334.082,127.54 341.413,81.213 C340.959,80.75 351.015,19.718 423.611,0.603 Z" id="Shape" fill="#3F8C60"></path>
                <path d="M354.84,78.433 C354.84,78.433 410.742,61.755 434.57,4.307 C434.57,5.697 434.57,71.485 434.57,71.485 C434.57,71.485 415.324,79.823 354.84,78.433 Z" id="Shape" fill="#3F8C60"></path>
                <path d="M421.426,121.457 L391.32,148.502 C391.32,148.502 377.411,146.746 357.419,120.82 C357.419,121.657 391.113,132.565 420.51,121.457 C420.601,121.548 421.333,121.548 421.426,121.457 Z" id="Shape" fill="#183319"></path>
                <path d="M384.936,26.282 C384.936,26.282 395.463,26.282 405.061,38.472 C414.529,29.283 427.018,7.555 427.018,7.555 C427.018,7.555 403.135,10.908 384.936,26.282 Z" id="Shape" fill="#183319"></path>
            </g>
        </g>
    </g>
</svg>