<?xml version="1.0" encoding="UTF-8"?>
<svg width="49px" height="38px" viewBox="0 0 49 38" version="1.1" xmlns="http://www.w3.org/2000/svg" xmlns:xlink="http://www.w3.org/1999/xlink">
    <!-- Generator: Sketch 51.2 (57519) - http://www.bohemiancoding.com/sketch -->
    <title>quote</title>
    <desc>Created with Sketch.</desc>
    <defs></defs>
    <g id="Page-1" stroke="none" stroke-width="1" fill="none" fill-rule="evenodd">
        <g id="Desktop-FullHd" transform="translate(-191.000000, -1145.000000)" fill="#FFFFFF" fill-rule="nonzero">
            <g id="MiddleSection" transform="translate(147.000000, 997.000000)">
                <g id="Testimonial">
                    <g id="quote" transform="translate(44.016081, 148.000000)">
                        <path d="M28.4509529,21.3886492 C27.865198,21.3886492 27.385944,20.9074166 27.385944,20.3192434 L27.385944,1.06940572 C27.385944,0.481232575 27.865198,0 28.4509529,0 L47.6211138,0 C48.2068687,0 48.6861227,0.481232575 48.6861227,1.06940572 L48.6861227,20.3192434 C48.6861227,20.9074166 48.4411706,21.8019745 48.1424356,22.3078034 L39.3683595,37.1286973 C39.069092,37.6339915 38.3454184,38.0259287 37.760196,37.9986588 L32.6241905,37.7628549 C32.038968,37.735585 31.6694099,37.2452625 31.8025361,36.6725957 L35.1163114,22.4286462 C35.2494375,21.8559795 34.8793469,21.3875797 34.293592,21.3875797 L28.4509529,21.3886492 Z" id="Shape"></path>
                        <path d="M1.06500893,21.3883482 C0.47925402,21.3883482 0,20.9071224 0,20.3189575 L0,1.06939068 C0,0.481225804 0.47925402,0 1.06500893,0 L20.2351697,0 C20.8209247,0 21.3001787,0.481225804 21.3001787,1.06939068 L21.3001787,20.3189575 C21.3001787,20.9071224 21.0552266,21.8016677 20.7559591,22.3080242 L11.982948,37.1281749 C11.6836805,37.6339967 10.9600069,38.0259283 10.3747845,37.9986589 L5.23877895,37.7628582 C4.65355654,37.7355888 4.28399844,37.2452731 4.41712455,36.6726144 L7.73089985,22.4283306 C7.86402597,21.8556719 7.49393536,21.3872788 6.90818045,21.3872788 L1.06500893,21.3883482 Z" id="Shape"></path>
                    </g>
                </g>
            </g>
        </g>
    </g>
</svg>