<?xml version="1.0" encoding="UTF-8"?>
<svg width="79px" height="75px" viewBox="0 0 79 75" version="1.1" xmlns="http://www.w3.org/2000/svg" xmlns:xlink="http://www.w3.org/1999/xlink">
    <!-- Generator: Sketch 51.2 (57519) - http://www.bohemiancoding.com/sketch -->
    <title>theather</title>
    <desc>Created with Sketch.</desc>
    <defs></defs>
    <g id="Page-1" stroke="none" stroke-width="1" fill="none" fill-rule="evenodd">
        <g id="Desktop-FullHd" transform="translate(-900.000000, -665.000000)" fill-rule="nonzero">
            <g id="InfoBoxes" transform="translate(145.000000, 636.000000)">
                <g id="Theather" transform="translate(720.000000, 0.000000)">
                    <g id="theather" transform="translate(35.000000, 29.000000)">
                        <g id="Group">
                            <path d="M35.4489231,54.0178571 C28.1480769,54.0178571 15.8551154,50.3819643 12.7225385,43.8075 L1.09846154,19.4110714 C2.08315385,17.6667857 6.56134615,10.5953571 16.9241538,5.39392857 C24.1916538,1.74821429 30.3430385,0.982142857 34.2229615,0.982142857 C35.7176538,0.982142857 36.8023846,1.1 37.3771154,1.1825 L48.9953077,25.5651786 C52.9438846,33.8525 44.7152308,50.8239286 39.7191923,53.3283929 C38.8345385,53.7723214 37.3163077,54.0178571 35.4489231,54.0178571 Z" id="Shape"></path>
                            <path d="M34.2249231,1.96428571 C35.2939615,1.96428571 36.1413462,2.02714286 36.7239231,2.09 L48.1106538,25.9875 C51.9807692,34.1098214 43.3813846,50.39375 39.2817692,52.4503571 C38.9306538,52.6251786 37.8537692,53.0357143 35.4489231,53.0357143 C28.2481154,53.0357143 16.4573077,49.3644643 13.6071923,43.3851786 L2.20673077,19.4601786 C3.52880769,17.2817857 7.95403846,10.9941071 17.3615769,6.27392857 C24.4603846,2.71267857 30.4509231,1.96428571 34.2249231,1.96428571 Z M34.2249231,0 C30.4038462,0 24.0229615,0.734642857 16.4847692,4.51785714 C4.15846154,10.7033929 0,19.3855357 0,19.3855357 C0,19.3855357 7.67746154,35.5005357 11.8378846,44.2298214 C15.1371923,51.1578571 27.7910769,55 35.4489231,55 C37.4398846,55 39.0954231,54.73875 40.1585769,54.2064286 C45.3095769,51.6214286 54.1208077,34.045 49.8799615,25.1408929 C45.6371538,16.2367857 38.0420769,0.296607143 38.0420769,0.296607143 C38.0420769,0.296607143 36.6493846,0 34.2249231,0 Z" id="Shape" fill="#FFFFFF"></path>
                        </g>
                        <path d="M2,19.2392419 L13.408775,43.2962263 C16.2590058,49.3084972 28.0584116,53 35.2644703,53 C37.4924399,53 38.5720728,52.6504034 39,52.4568415 L17.126638,6 C7.73972094,10.7442427 3.32107804,17.0508069 2,19.2392419 Z" id="Shape"></path>
                        <g id="Group" transform="translate(11.000000, 22.000000)" fill="#FFFFFF">
                            <path d="M1.1629798,5.10353261 C1.45075758,3.95461957 2.13843434,2.47472826 3.77353535,1.64157609 C4.42757576,1.30679348 5.11712121,1.1375 5.82161616,1.1375 C6.64010101,1.1375 7.38570707,1.36576087 7.97247475,1.63016304 L1.1629798,5.10353261 Z" id="Shape"></path>
                            <path d="M4.33787879,2.42146739 L4.13045455,2.52798913 L4.05757576,2.56603261 C4.10242424,2.54130435 4.14727273,2.51657609 4.1939899,2.49375 C4.24070707,2.46711957 4.28929293,2.44429348 4.33787879,2.42146739 Z M5.82348485,0.188315217 C5.05171717,0.188315217 4.21641414,0.353804348 3.35494949,0.791304348 C-0.11520202,2.56222826 0.0230808081,6.74891304 0.0230808081,6.74891304 C0.0230808081,6.74891304 3.16621212,5.14538043 4.96575758,4.22853261 C6.76343434,3.31168478 9.90843434,1.70815217 9.90843434,1.70815217 C9.90843434,1.70815217 8.16494949,0.188315217 5.82348485,0.188315217 Z" id="Shape"></path>
                        </g>
                        <g id="Group" transform="translate(34.000000, 36.500000) rotate(180.000000) translate(-34.000000, -36.500000) translate(23.000000, 29.000000)" fill="#FFFFFF">
                            <path d="M0.988,12.193125 C0.916,9.28875 1.708,4.659375 6.88,2.128125 C8.496,1.336875 10.172,0.935625 11.86,0.935625 C14.862,0.935625 17.422,2.188125 19.108,3.305625 C16.392,3.320625 12.45,3.72 8.806,5.505 C5.094,7.321875 2.494,10.17 0.988,12.193125 Z" id="Shape"></path>
                            <path d="M11.86,1.875 C13.232,1.875 14.512,2.1675 15.644,2.589375 C13.368,2.870625 10.796,3.474375 8.342,4.674375 C5.85,5.893125 3.836,7.558125 2.298,9.151875 C2.834,6.91875 4.196,4.5 7.344,2.95875 C8.814,2.240625 10.334,1.875 11.86,1.875 Z M11.858,0 C10.162,0 8.326,0.36375 6.416,1.299375 C-2.142,5.488125 0.332,15 0.332,15 C0.332,15 3.348,9.234375 9.266,6.3375 C12.834,4.591875 16.73,4.245 19.26,4.245 C20.926,4.245 22,4.395 22,4.395 C22,4.395 17.762,0 11.858,0 Z" id="Shape"></path>
                        </g>
                        <g id="Group" transform="translate(28.000000, 14.000000)" fill="#FFFFFF">
                            <path d="M1.38328431,5.14261364 C1.66259804,3.94147727 2.33004902,2.39431818 3.91705882,1.52130682 C4.55186275,1.17329545 5.22112745,0.996306818 5.90490196,0.996306818 C6.70112745,0.996306818 7.42480392,1.23494318 7.99431373,1.509375 L1.38328431,5.14261364 Z" id="Shape"></path>
                            <path d="M4.46480392,2.33863636 L4.26348039,2.45 L4.1927451,2.48977273 C4.23627451,2.46392045 4.27980392,2.43806818 4.32514706,2.41420455 C4.3704902,2.38636364 4.41764706,2.36051136 4.46480392,2.33863636 Z M5.90671569,0.00198863636 C5.15764706,0.00198863636 4.34691176,0.175 3.51078431,0.632386364 C0.142696078,2.48380682 0.276911765,6.86079545 0.276911765,6.86079545 C0.276911765,6.86079545 3.32759804,5.184375 5.07421569,4.22585227 C6.82083333,3.26732955 9.87151961,1.59090909 9.87151961,1.59090909 C9.87151961,1.59090909 8.17931373,0.00198863636 5.90671569,0.00198863636 Z" id="Shape"></path>
                        </g>
                        <g id="Group" transform="translate(27.000000, 19.000000)" stroke="#FFFFFF">
                            <path d="M16.8421174,54.0178571 C15.8835954,54.0178571 15.072086,53.91375 14.4957966,53.7173214 C11.9279769,52.8451786 7.12948637,47.7478571 3.85404612,41.0378571 C1.19801887,35.5928571 0.368867925,30.7646429 1.51948637,27.4430357 L10.3892453,1.83857143 C11.3948113,1.57142857 14.0508386,0.982142857 17.8790461,0.982142857 C22.4638784,0.982142857 27.1937631,1.79928571 31.9354088,3.41196429 C43.2259748,7.25214286 48.6693606,13.6498214 49.9042662,15.2683929 L41.0384277,40.865 C38.3608386,48.5944643 23.7399476,54.0178571 16.8421174,54.0178571 Z" id="Shape"></path>
                            <path d="M17.8810063,1.96428571 C22.3580294,1.96428571 26.9801048,2.76375 31.621782,4.34303571 C41.8362159,7.81589286 47.1600314,13.4553571 48.802652,15.4589286 L40.1132285,40.5448214 C37.7649476,47.3196429 24.1496226,53.0357143 16.8421174,53.0357143 C15.7640252,53.0357143 15.142652,52.9001786 14.8094235,52.7882143 C12.4180189,51.975 7.79790356,46.8855357 4.73416143,40.6076786 C2.22906709,35.475 1.39599581,30.7941071 2.44468553,27.7651786 L11.1399895,2.66553571 C12.3356918,2.38660714 14.6800524,1.96428571 17.8810063,1.96428571 Z M17.8790461,0 C12.7022432,0 9.62870021,1.03714286 9.62870021,1.03714286 C9.62870021,1.03714286 3.76779874,17.9555357 0.592327044,27.1208929 C-2.58314465,36.2842857 8.57609015,52.7430357 14.1782495,54.6483929 C14.8780294,54.8860714 15.7836268,55 16.8421174,55 C24.2633124,55 39.1311845,49.3683929 41.965587,41.1871429 C45.2018239,31.8410714 51,15.1053571 51,15.1053571 C51,15.1053571 45.6546226,7.04 32.2509958,2.48285714 C26.5861111,0.555892857 21.6680503,0 17.8790461,0 Z" id="Shape"></path>
                        </g>
                        <path d="M45.0884386,21 C41.8449234,21 39.4693912,21.4237517 38.2597766,21.703625 L29.4488562,46.8882748 C28.3862226,49.9274617 29.2303708,54.6242078 31.7687739,59.7742696 C34.8732529,66.0733885 39.5528129,71.1800897 41.9780009,71.9960581 C41.9819734,71.9980291 41.9879321,71.9980291 41.9919045,72 L59,23.3828644 C54.3005776,21.8021719 49.6190313,21 45.0884386,21 Z" id="Shape"></path>
                        <g id="Group" transform="translate(39.000000, 33.000000)" fill="#FFFFFF">
                            <path d="M1.98224074,1.725 C2.69072222,1.318125 3.64981019,0.9375 4.75210185,0.9375 C5.28911574,0.9375 5.82989815,1.0275 6.36125926,1.2075 C8.15695833,1.813125 9.05386574,3.178125 9.49478241,4.26 L1.98224074,1.725 Z" id="Shape"></path>
                            <path d="M5.71307407,1.993125 C5.82801389,2.02125 5.94483796,2.055 6.05977778,2.094375 C6.17471759,2.13375 6.28400463,2.175 6.39140741,2.221875 L6.02962963,2.1 L5.71307407,1.993125 Z M4.75210185,0 C1.93890278,0 0,2.045625 0,2.045625 C0,2.045625 3.4500787,3.21 5.42289815,3.8775 C7.39571759,4.543125 10.8457963,5.709375 10.8457963,5.709375 C10.8457963,5.709375 10.4708287,1.606875 6.66274074,0.320625 C5.9938287,0.09375 5.35318056,0 4.75210185,0 Z" id="Shape"></path>
                        </g>
                        <g id="Group" transform="translate(39.000000, 47.000000)" fill="#FFFFFF">
                            <path d="M12.0550617,13 C10.7828182,13 9.45613636,12.764 8.11332468,12.298 C2.46182143,10.34 1.21982143,5.666 1.02827922,2.718 C2.67957468,4.474 5.48818831,6.866 9.46823377,8.244 C12.1841006,9.186 15.1278019,9.662 18.2146558,9.662 C18.7912987,9.662 19.3235844,9.646 19.7994156,9.618 C18.2751429,11.114 15.6419416,13 12.0550617,13 Z" id="Shape"></path>
                            <path d="M2.58279545,5.52 C4.26030195,6.878 6.44589935,8.256 9.13757143,9.19 C11.5731818,10.034 14.1821883,10.518 16.9061201,10.636 C15.6157305,11.404 13.9926623,12 12.0530455,12 C10.893711,12 9.67993831,11.784 8.44398701,11.356 C4.9498539,10.144 3.31872078,7.764 2.58279545,5.52 Z M0.110892857,0 C0.110892857,0 -1.52024026,10.022 7.7806461,13.244 C9.3210487,13.778 10.7485422,14 12.0530455,14 C18.6320162,14 22.1785714,8.354 22.1785714,8.354 C22.1785714,8.354 20.6099416,8.664 18.2146558,8.664 C15.9443766,8.664 12.9301071,8.386 9.80091234,7.302 C3.36912662,5.074 0.110892857,0 0.110892857,0 Z" id="Shape"></path>
                        </g>
                        <g id="Group" transform="translate(56.000000, 39.000000)">
                            <path d="M2.04224603,1.749375 C2.74799206,1.3425 3.70337698,0.96375 4.79953571,0.96375 C5.33447619,0.96375 5.87504762,1.05375 6.40248016,1.23375 C8.19124603,1.839375 9.08469048,3.2025 9.52390476,4.28625 L2.04224603,1.749375 Z" id="Shape" fill="#4788C7"></path>
                            <path d="M5.75679762,2.019375 C5.87129365,2.0475 5.98766667,2.08125 6.1021627,2.120625 C6.21665873,2.16 6.32552381,2.20125 6.4325119,2.248125 L6.07213095,2.12625 L5.75679762,2.019375 Z M4.8014127,0.024375 C1.9990754,0.024375 0.0676587302,2.07 0.0676587302,2.07 C0.0676587302,2.07 3.50441667,3.234375 5.46961905,3.901875 C7.43482143,4.5675 10.8715794,5.73375 10.8715794,5.73375 C10.8715794,5.73375 10.4980595,1.63125 6.7046746,0.345 C6.03646825,0.118125 5.40017063,0.024375 4.8014127,0.024375 Z" id="Shape" fill="#FFFFFF"></path>
                        </g>
                    </g>
                </g>
            </g>
        </g>
    </g>
</svg>